<svg xmlns="http://www.w3.org/2000/svg" viewBox="0 0 320 400" fill="none">
  <defs>
    <linearGradient id="mg" x1="0" y1="0" x2="1" y2="1">
      <stop offset="0%" stop-color="#5dffb0"/>
      <stop offset="100%" stop-color="#ff4bd8"/>
    </linearGradient>
  </defs>
  <rect x="120" y="48" width="80" height="72" rx="12" fill="#0a1525" stroke="url(#mg)" stroke-width="2.5"/>
  <rect x="140" y="64" width="40" height="10" rx="3" fill="#5dffb0" opacity="0.75"/>
  <rect x="130" y="125" width="60" height="95" rx="10" fill="#0d1828" stroke="#5dffb0" stroke-width="2"/>
  <rect x="70" y="135" width="28" height="85" rx="8" fill="#0d1828" stroke="#ff4bd8"/>
  <rect x="222" y="135" width="28" height="85" rx="8" fill="#0d1828" stroke="#ff4bd8"/>
  <path d="M85 218 L55 205 L50 248 L82 262 Z" fill="#0a1525" stroke="#5dffb0"/>
  <path d="M235 218 L265 205 L270 248 L238 262 Z" fill="#0a1525" stroke="#5dffb0"/>
  <rect x="118" y="225" width="36" height="100" rx="10" fill="#0d1828" stroke="url(#mg)"/>
  <rect x="166" y="225" width="36" height="100" rx="10" fill="#0d1828" stroke="url(#mg)"/>
  <circle cx="160" cy="95" r="6" fill="#5dffb0"/>
  <rect x="145" y="330" width="30" height="8" rx="2" fill="#5dffb0" opacity="0.5"/>
</svg>
