<svg xmlns="http://www.w3.org/2000/svg" viewBox="0 0 320 400" fill="none">
  <defs>
    <linearGradient id="g1" x1="0" y1="0" x2="1" y2="1">
      <stop offset="0%" stop-color="#3dffb5"/>
      <stop offset="100%" stop-color="#ff4bd8"/>
    </linearGradient>
    <filter id="f1" x="-20%" y="-20%" width="140%" height="140%">
      <feGaussianBlur stdDeviation="6" result="b"/>
      <feMerge><feMergeNode in="b"/><feMergeNode in="SourceGraphic"/></feMerge>
    </filter>
  </defs>
  <ellipse cx="160" cy="360" rx="120" ry="18" fill="url(#g1)" opacity="0.25"/>
  <rect x="110" y="40" width="100" height="90" rx="14" fill="#0a1525" stroke="url(#g1)" stroke-width="3" filter="url(#f1)"/>
  <rect x="135" y="58" width="50" height="14" rx="4" fill="#3dffb5" opacity="0.65"/>
  <rect x="125" y="130" width="70" height="110" rx="12" fill="#0d1828" stroke="#3dffb5" stroke-width="2"/>
  <rect x="60" y="85" width="36" height="100" rx="10" fill="#0d1828" stroke="#ff4bd8" stroke-width="2"/>
  <rect x="224" y="85" width="36" height="100" rx="10" fill="#0d1828" stroke="#ff4bd8" stroke-width="2"/>
  <rect x="118" y="248" width="38" height="95" rx="10" fill="#0d1828" stroke="#3dffb5"/>
  <rect x="164" y="248" width="38" height="95" rx="10" fill="#0d1828" stroke="#3dffb5"/>
  <path d="M100 200 L40 175 L35 220 L95 235 Z" fill="#0a1525" stroke="#3dffb5" stroke-width="2"/>
  <path d="M220 200 L280 175 L285 220 L225 235 Z" fill="#0a1525" stroke="#3dffb5" stroke-width="2"/>
  <circle cx="160" cy="95" r="8" fill="#3dffb5"/>
</svg>
